<svg id="logo" xmlns="http://www.w3.org/2000/svg" xmlns:xlink="http://www.w3.org/1999/xlink" width="278.193" height="53.591" viewBox="0 0 278.193 53.591">
  <defs>
    <clipPath id="clip-path">
      <rect id="Rectangle_57" data-name="Rectangle 57" width="278.193" height="53.591" fill="none"/>
    </clipPath>
  </defs>
  <g id="Group_8" data-name="Group 8" clip-path="url(#clip-path)">
    <path id="Path_9" data-name="Path 9" d="M61.115,74.637c0-7.405,5.142-12.445,12.685-12.445a12.713,12.713,0,0,1,7.577,2.5l-4.491,7.474a4.727,4.727,0,0,0-3.051-1.131,3.545,3.545,0,0,0-3.771,3.531,3.439,3.439,0,0,0,3.737,3.6,5.111,5.111,0,0,0,3.394-1.234l4.183,7.542a12.714,12.714,0,0,1-7.92,2.537c-7.268,0-12.342-4.937-12.342-12.376" transform="translate(-33.042 -33.624)"/>
    <path id="Path_10" data-name="Path 10" d="M105.6,74.569a12.411,12.411,0,0,1,24.821,0,12.411,12.411,0,1,1-24.821,0" transform="translate(-57.09 -33.625)"/>
    <path id="Path_11" data-name="Path 11" d="M165.971,63.088h4.046c2.845,0,14.193,0,14.193,11.931,0,12.068-10.525,12.068-12.787,12.068h-5.452Z" transform="translate(-89.733 -34.109)"/>
    <path id="Path_12" data-name="Path 12" d="M212.018,63.088H230.36v8.434h-9.908V74.23h8.056v1.577h-8.056v2.845h9.908v8.434H212.018Z" transform="translate(-114.629 -34.109)"/>
    <path id="Path_13" data-name="Path 13" d="M264.115,75.42c0-7.611,5.725-12.788,13.782-12.788V75.317h9.119v8.708a14.022,14.022,0,0,1-9.6,3.429c-8.125,0-13.3-4.731-13.3-12.033" transform="translate(-142.795 -33.862)"/>
    <path id="Path_14" data-name="Path 14" d="M329.449,61.289l12.719,25.027H316.73Z" transform="translate(-171.242 -33.136)"/>
    <path id="Path_15" data-name="Path 15" d="M376.958,63.528h8.571V79.093h8.639v8.434h-17.21Z" transform="translate(-203.804 -34.347)"/>
    <path id="Path_16" data-name="Path 16" d="M420.916,63.528h8.571V79.093h8.639v8.434h-17.21Z" transform="translate(-227.57 -34.347)"/>
    <path id="Path_17" data-name="Path 17" d="M464.873,63.528h18.342v8.434h-9.908V74.67h8.056v1.577h-8.056v2.846h9.908v8.434H464.873Z" transform="translate(-251.336 -34.347)"/>
    <path id="Path_18" data-name="Path 18" d="M512.935,63.528h8.091c4.354,0,11.005,0,11.005,7.165,0,3.7-1.783,6.1-5.725,7.131l6.137,9.7H512.935Z" transform="translate(-277.321 -34.347)"/>
    <path id="Path_19" data-name="Path 19" d="M563.133,78.27l-7.508-14.742h22.969L571.7,77.07V87.526h-8.571Z" transform="translate(-300.401 -34.346)"/>
    <text id="_" data-name="©" transform="translate(0 34.808)" font-size="41" font-family="MyriadPro-Regular, Myriad Pro"><tspan x="0" y="0">©</tspan></text>
  </g>
</svg>
