<svg xmlns="http://www.w3.org/2000/svg" xmlns:xlink="http://www.w3.org/1999/xlink" width="512" height="110" viewBox="0 0 512 110">
  <defs>
    <clipPath id="clip-path">
      <circle id="Ellipse_27" data-name="Ellipse 27" cx="45" cy="45" r="45" transform="translate(1562.188 973.188)" fill="#fff"/>
    </clipPath>
  </defs>
  <g id="Group_27" data-name="Group 27" transform="translate(-1195 -6330)">
    <rect id="Rectangle_71" data-name="Rectangle 71" width="457" height="67" transform="translate(1195 6349)" fill="#fff"/>
    <text id="download_tekst" data-name="download tekst" transform="translate(1246 6367)" font-size="30" font-family="Larken-Regular, Larken"><tspan x="0" y="26">Download het lespakket</tspan></text>
    <circle id="Ellipse_26" data-name="Ellipse 26" cx="55" cy="55" r="55" transform="translate(1597 6330)" fill="#ddd"/>
    <g id="Mask_Group_2" data-name="Mask Group 2" transform="translate(44.812 5366.812)" clip-path="url(#clip-path)">
      <g id="Sterretje" transform="translate(1546.829 957.829)">
        <g id="Group_19" data-name="Group 19" transform="translate(0 0)">
          <rect id="Rectangle_77" data-name="Rectangle 77" width="2" height="120" transform="translate(59.359 0.359)"/>
          <rect id="Rectangle_78" data-name="Rectangle 78" width="1.611" height="120.853" transform="matrix(0.966, -0.259, 0.259, 0.966, 43.963, 2.222)"/>
          <rect id="Rectangle_79" data-name="Rectangle 79" width="1.611" height="120.853" transform="translate(29.47 8.454) rotate(-30.001)"/>
          <rect id="Rectangle_80" data-name="Rectangle 80" width="1.611" height="120.853" transform="matrix(0.707, -0.707, 0.707, 0.707, 17.084, 18.223)"/>
          <rect id="Rectangle_81" data-name="Rectangle 81" width="1.611" height="120.853" transform="translate(7.648 30.865) rotate(-59.999)"/>
          <rect id="Rectangle_82" data-name="Rectangle 82" width="1.611" height="120.853" transform="translate(1.805 45.519) rotate(-74.999)"/>
          <rect id="Rectangle_83" data-name="Rectangle 83" width="120" height="2" transform="translate(0.359 59.359)"/>
          <rect id="Rectangle_84" data-name="Rectangle 84" width="120.853" height="1.611" transform="translate(7.648 89.897) rotate(-30)"/>
          <rect id="Rectangle_85" data-name="Rectangle 85" width="120.853" height="1.611" transform="matrix(0.966, -0.259, 0.259, 0.966, 1.805, 75.243)"/>
          <rect id="Rectangle_86" data-name="Rectangle 86" width="120.853" height="1.611" transform="matrix(0.707, -0.707, 0.707, 0.707, 17.083, 102.54)"/>
          <rect id="Rectangle_87" data-name="Rectangle 87" width="120.853" height="1.611" transform="matrix(0.5, -0.866, 0.866, 0.5, 29.47, 112.309)"/>
          <rect id="Rectangle_88" data-name="Rectangle 88" width="120.853" height="1.611" transform="translate(43.963 118.54) rotate(-74.999)"/>
        </g>
      </g>
    </g>
  </g>
</svg>
