<svg id="linkedin-logo" xmlns="http://www.w3.org/2000/svg" xmlns:xlink="http://www.w3.org/1999/xlink" width="34.397" height="34.397" viewBox="0 0 34.397 34.397">
  <defs>
    <clipPath id="clip-path">
      <rect id="Rectangle_166" data-name="Rectangle 166" width="34.397" height="34.397"/>
    </clipPath>
  </defs>
  <g id="Group_51" data-name="Group 51" transform="translate(0 0)" clip-path="url(#clip-path)">
    <path id="Path_639" data-name="Path 639" d="M4.1,34.4H30.3a4.1,4.1,0,0,0,4.1-4.1V4.1A4.1,4.1,0,0,0,30.3,0H4.1A4.1,4.1,0,0,0,0,4.1V30.3a4.1,4.1,0,0,0,4.1,4.1M17.2,13.923V15.2a.819.819,0,0,0,1.474.492,5.145,5.145,0,0,1,4.1-1.77,4.753,4.753,0,0,1,3.572,1.427,6.335,6.335,0,0,1,1.5,4.521v7.975H24.569V20.474a4.567,4.567,0,0,0-.827-2.746A3.562,3.562,0,0,0,20.9,16.344a3.44,3.44,0,0,0-2.868,1.361,4.637,4.637,0,0,0-.831,2.769v7.37H13.923V13.923ZM6.943,7.75a1.935,1.935,0,0,1,1.246-.389l.013,0c1.14,0,1.588.509,1.639,1.232-.011.7-.443,1.245-1.639,1.245-1.135,0-1.647-.581-1.647-1.265a1,1,0,0,1,.388-.82m-.392,6.173H9.827V27.846H6.551Z"/>
  </g>
</svg>
