<svg xmlns="http://www.w3.org/2000/svg" width="53" height="53" viewBox="0 0 53 53">
  <path id="icons8-instagram" d="M18.659,3A15.678,15.678,0,0,0,3,18.659V40.341A15.678,15.678,0,0,0,18.659,56H40.341A15.678,15.678,0,0,0,56,40.341V18.659A15.678,15.678,0,0,0,40.341,3Zm0,2.409H40.341a13.233,13.233,0,0,1,13.25,13.25V40.341a13.233,13.233,0,0,1-13.25,13.25H18.659a13.233,13.233,0,0,1-13.25-13.25V18.659A13.233,13.233,0,0,1,18.659,5.409Zm25.3,7.227a2.409,2.409,0,1,0,2.409,2.409A2.409,2.409,0,0,0,43.955,12.636ZM29.5,16.25A13.25,13.25,0,1,0,42.75,29.5,13.268,13.268,0,0,0,29.5,16.25Zm0,2.409A10.841,10.841,0,1,1,18.659,29.5,10.823,10.823,0,0,1,29.5,18.659Z" transform="translate(-3 -3)"/>
</svg>
