<?xml version="1.0" encoding="UTF-8"?>
<svg id="Laag_2" data-name="Laag 2" xmlns="http://www.w3.org/2000/svg" viewBox="0 0 341.51 168.46">
  <defs>
    <style>
      .cls-1 {
        fill: #ffff40;
      }
    </style>
  </defs>
  <g id="Laag_1-2" data-name="Laag 1">
    <g>
      <path class="cls-1" d="m306.74,13.24l-36.99,48.67v.78l58.8-7.79v26.48l-58.8-7.01v.78l37.38,46.73-24.53,14.02-23.36-54.51h-.78l-25.31,54.9-22.19-14.02,36.99-47.51v-.78l-57.63,7.4v-26.48l57.24,7.4v-.78l-36.6-47.51L234.71.39l24.14,54.12h.78L283.38,0l23.36,13.24Z"/>
      <g>
        <path d="m0,72.07c0-16.12,11.2-27.09,27.62-27.09,5.9,0,11.87,1.94,16.49,5.45l-9.78,16.27c-1.87-1.57-4.18-2.46-6.64-2.46-4.78,0-8.21,3.28-8.21,7.69,0,4.7,3.13,7.84,8.14,7.84,2.84,0,5.22-.9,7.39-2.69l9.11,16.42c-4.18,3.36-10.3,5.52-17.24,5.52-15.82,0-26.87-10.75-26.87-26.94Z"/>
        <path d="m44.48,71.92c0-15.52,11.42-26.94,27.09-26.94s26.94,11.42,26.94,26.94-11.42,27.09-26.87,27.09-27.17-11.42-27.17-27.09Z"/>
        <path d="m104.86,45.88h8.81c6.19,0,30.9,0,30.9,25.97s-22.91,26.27-27.84,26.27h-11.87v-52.24Z"/>
        <path d="m150.9,45.88h39.93v18.36h-21.57v5.9h17.54v3.43h-17.54v6.19h21.57v18.36h-39.93v-52.24Z"/>
        <path d="m0,142.26c0-16.57,12.46-27.84,30-27.84v27.61h19.85v18.96c-4.7,4.55-12.46,7.46-20.9,7.46-17.69,0-28.96-10.3-28.96-26.2Z"/>
        <path d="m80.3,113.08l27.69,54.48h-55.38l27.69-54.48Z"/>
        <path d="m112.84,115.32h18.66v33.88h18.81v18.36h-37.47v-52.24Z"/>
        <path d="m156.8,115.32h18.66v33.88h18.81v18.36h-37.47v-52.24Z"/>
        <path d="m200.76,115.32h39.93v18.36h-21.57v5.9h17.54v3.43h-17.54v6.2h21.57v18.36h-39.93v-52.24Z"/>
        <path d="m248.82,115.32h17.61c9.48,0,23.96,0,23.96,15.6,0,8.06-3.88,13.29-12.46,15.52l13.36,21.12h-42.47v-52.24Z"/>
        <path d="m307.85,147.41l-16.35-32.09h50.01l-15,29.48v22.76h-18.66v-20.15Z"/>
      </g>
    </g>
  </g>
</svg>