<svg id="Group_11" data-name="Group 11" xmlns="http://www.w3.org/2000/svg" xmlns:xlink="http://www.w3.org/1999/xlink" width="377" height="213.654" viewBox="0 0 377 213.654">
  <defs>
    <clipPath id="clip-path">
      <rect id="Rectangle_64" data-name="Rectangle 64" width="377" height="213.654" fill="none"/>
    </clipPath>
  </defs>
  <path id="Path_36" data-name="Path 36" d="M279.5,0,256.74,52.243h-.746L232.857.374,210.1,13.434,245.172,58.96v.747l-54.854-7.091V77.992L245.544,70.9v.746L210.1,117.174l21.27,13.433L255.62,77.992h.746l22.39,52.241,23.51-13.433L266.442,72.02v-.747l56.347,6.718V52.616l-56.347,7.462v-.746l35.45-46.645Z" transform="translate(41.786 27)" fill="#ffff40"/>
  <g id="Group_10" data-name="Group 10">
    <g id="Group_9" data-name="Group 9" clip-path="url(#clip-path)">
      <path id="Path_37" data-name="Path 37" d="M0,79.342C0,58.9,12.358,44.98,30.484,44.98a28.025,28.025,0,0,1,18.209,6.911L37.9,72.526A10.535,10.535,0,0,0,30.567,69.4c-5.273,0-9.063,4.165-9.063,9.751,0,5.964,3.461,9.938,8.98,9.938a11.375,11.375,0,0,0,8.157-3.408l10.052,20.826a28.025,28.025,0,0,1-19.032,7C12.194,113.514,0,99.884,0,79.342" transform="translate(0 12.068)"/>
      <path id="Path_38" data-name="Path 38" d="M44.48,79.153c0-19.689,12.605-34.172,29.908-34.172,17.137,0,29.743,14.483,29.743,34.172,0,19.878-12.605,34.361-29.661,34.361-17.384,0-29.99-14.483-29.99-34.361" transform="translate(4.622 12.069)"/>
      <path id="Path_39" data-name="Path 39" d="M104.856,45.876h9.722c6.839,0,34.11,0,34.11,32.942,0,33.321-25.294,33.321-30.732,33.321h-13.1Z" transform="translate(10.895 12.309)"/>
      <path id="Path_40" data-name="Path 40" d="M150.9,45.876h44.079V69.162H171.171v7.479h19.361V81H171.171v7.856h23.811v23.287H150.9Z" transform="translate(15.68 12.309)"/>
      <path id="Path_41" data-name="Path 41" d="M0,149.728c0-21.015,13.759-35.308,33.122-35.308v35.024H55.036v24.043c-5.189,5.775-13.759,9.467-23.069,9.467C12.441,182.954,0,169.891,0,149.728" transform="translate(0 30.7)"/>
      <path id="Path_42" data-name="Path 42" d="M83.182,113.077l30.567,69.1H52.615Z" transform="translate(5.467 30.339)"/>
      <path id="Path_43" data-name="Path 43" d="M112.843,115.316h20.6v42.977H154.2v23.286h-41.36Z" transform="translate(11.725 30.94)"/>
      <path id="Path_44" data-name="Path 44" d="M156.8,115.316h20.6v42.977H198.16v23.286H156.8Z" transform="translate(16.292 30.94)"/>
      <path id="Path_45" data-name="Path 45" d="M200.758,115.316h44.079V138.6H221.026v7.478h19.361v4.354H221.026v7.857h23.811v23.286H200.758Z" transform="translate(20.86 30.94)"/>
      <path id="Path_46" data-name="Path 46" d="M248.82,115.316h19.444c10.464,0,26.447,0,26.447,19.784,0,10.224-4.284,16.849-13.759,19.689L295.7,181.579H248.82Z" transform="translate(25.854 30.94)"/>
      <path id="Path_47" data-name="Path 47" d="M309.553,156.02l-18.043-40.705h55.2l-16.56,37.392v28.87h-20.6Z" transform="translate(30.289 30.94)"/>
    </g>
  </g>
</svg>
