<svg xmlns="http://www.w3.org/2000/svg" xmlns:xlink="http://www.w3.org/1999/xlink" width="1200" height="850" viewBox="0 0 1200 850">
  <defs>
    <clipPath id="clip-path">
      <ellipse id="Ellipse_27" data-name="Ellipse 27" cx="286.168" cy="286.168" rx="286.168" ry="286.168" transform="translate(0 0)" fill="rgba(255,255,255,0)"/>
    </clipPath>
  </defs>
  <g id="scene-1-bg" transform="translate(0 -100)">
    <rect id="Rectangle_195" data-name="Rectangle 195" width="1200" height="850" transform="translate(0 100)" fill="#ffff40"/>
    <path id="vak_1" data-name="vak 1" d="M41.838,36.413l1153.386,75.554L821.383,703.11,138.556,573.428Z" transform="translate(-18.531 163.89)" fill="#ddd"/>
    <g id="Mask_Group_2" data-name="Mask Group 2" transform="translate(330.444 294.664)" clip-path="url(#clip-path)">
      <g id="Sterretje" transform="translate(-345.765 -346.751)">
        <g id="Group_19" data-name="Group 19" transform="translate(0 0)">
          <rect id="Rectangle_77" data-name="Rectangle 77" width="17.732" height="1264.852" transform="translate(623.56 0)" fill="#ffff40"/>
          <rect id="Rectangle_78" data-name="Rectangle 78" width="16.856" height="1264.267" transform="matrix(0.966, -0.259, 0.259, 0.966, 460.399, 24.296)" fill="#ffff40"/>
          <rect id="Rectangle_79" data-name="Rectangle 79" width="16.857" height="1264.267" transform="translate(308.783 89.481) rotate(-30.001)" fill="#ffff40"/>
          <rect id="Rectangle_80" data-name="Rectangle 80" width="16.857" height="1264.267" transform="matrix(0.707, -0.707, 0.707, 0.707, 179.211, 191.68)" fill="#ffff40"/>
          <rect id="Rectangle_81" data-name="Rectangle 81" width="16.857" height="1264.267" transform="translate(80.501 323.932) rotate(-59.999)" fill="#ffff40"/>
          <rect id="Rectangle_82" data-name="Rectangle 82" width="16.857" height="1264.266" transform="translate(19.382 477.232) rotate(-74.999)" fill="#ffff40"/>
          <rect id="Rectangle_83" data-name="Rectangle 83" width="1263.867" height="16.746" transform="translate(0 624.545)" fill="#ffff40"/>
          <rect id="Rectangle_84" data-name="Rectangle 84" width="1264.267" height="16.857" transform="translate(80.497 941.474) rotate(-30)" fill="#ffff40"/>
          <rect id="Rectangle_85" data-name="Rectangle 85" width="1264.267" height="16.856" transform="matrix(0.966, -0.259, 0.259, 0.966, 19.381, 788.178)" fill="#ffff40"/>
          <rect id="Rectangle_86" data-name="Rectangle 86" width="1264.267" height="16.857" transform="matrix(0.707, -0.707, 0.707, 0.707, 179.208, 1073.731)" fill="#ffff40"/>
          <rect id="Rectangle_87" data-name="Rectangle 87" width="1264.267" height="16.857" transform="matrix(0.5, -0.866, 0.866, 0.5, 308.782, 1175.932)" fill="#ffff40"/>
          <rect id="Rectangle_88" data-name="Rectangle 88" width="1264.267" height="16.857" transform="translate(460.398 1241.117) rotate(-74.999)" fill="#ffff40"/>
        </g>
      </g>
    </g>
  </g>
</svg>
