<svg xmlns="http://www.w3.org/2000/svg" width="1226.46" height="1950" viewBox="0 0 1226.46 1950">
  <g id="scene-4-bg" transform="translate(26.46 -1483)">
    <rect id="Rectangle_196" data-name="Rectangle 196" width="1200" height="1950" transform="translate(-9 1483)" fill="#ffff40"/>
    <g id="sessie-3" transform="translate(22.978 -1073)">
      <path id="vak_6" data-name="vak 6" d="M0,0V279.449L475.068,389.574,541.915,49.057Z" transform="matrix(0.998, -0.07, 0.07, 0.998, 609.252, 3811.809)" fill="#ddd"/>
      <path id="Path_28" data-name="Path 28" d="M186.924,204.094l-19.734-.334-.075.271,18.44,7.236-.944,2.356-18.18-8.009-.148.213,14.294,13.729-1.862,1.76-13.673-14.163-.236.136,7.906,18.114-2.287,1.046-7.26-18.573-.246.044c0,1.1-.019,2.194,0,3.29.106,5.21.213,10.421.35,15.63.019.725-.18,1.029-.933.942a14.624,14.624,0,0,0-1.563-.01c.147-6.627.292-13.182.438-19.738l-.3-.076-7.229,18.477c-.612-.268-1.153-.54-1.718-.744-.523-.189-.553-.462-.343-.929,1.018-2.274,2.011-4.559,3.011-6.839q2.19-4.994,4.377-9.988c.088-.2.15-.414.225-.621l-.186-.143-13.681,14.141-1.877-1.705,14.337-13.776-.151-.207-18.216,8.012-.926-2.362,18.434-7.241-.017-.177a3.964,3.964,0,0,0-.52-.06q-6.1.094-12.2.2c-2.109.038-4.218.083-6.326.156-.587.02-.835-.151-.78-.77.049-.553.01-1.114.01-1.822l19.806.432.068-.239-18.475-7.263c.283-.711.51-1.38.831-2,.063-.122.535-.15.748-.059,2.475,1.061,4.938,2.151,7.4,3.237q4.675,2.057,9.348,4.116c.268.118.544.219.817.327l.135-.188-14.268-13.731,1.811-1.733,13.705,14.153.211-.147c-.185-.432-.367-.866-.555-1.3q-3.549-8.1-7.112-16.2c-.243-.55-.1-.733.408-.946,1.662-.7,1.656-.721,2.315.961q3.138,8.02,6.274,16.04c.1.267.232.525.348.786l.243-.041c0-.665.012-1.33,0-2q-.145-6.672-.3-13.344c-.029-1.245-.053-2.49-.108-3.734-.022-.485.125-.689.637-.673,2.053.065,1.855-.368,1.809,1.86-.08,3.839-.129,7.678-.2,11.517-.035,1.855-.091,3.71-.136,5.565-.007.269,0,.539,0,.809l.212.06c.132-.271.286-.533.395-.812q3.3-8.413,6.584-16.83c.343-.877.342-.877,1.24-.481.437.193.874.383,1.4.612L164.8,198.5l.211.155,13.768-14.262,1.683,1.9-14.173,13.642.132.222,18.171-8,.988,2.336-18.5,7.256.045.25,19.8-.433Z" transform="translate(653.243 3746.369)" fill="#ffff40"/>
      <path id="Path_586" data-name="Path 586" d="M238.963,231.333l-40.352-.683-.154.554,37.7,14.8c-.641,1.6-1.245,3.107-1.931,4.818l-37.173-16.377-.3.436,29.228,28.073-3.807,3.6-27.958-28.96-.482.278c5.368,12.3,10.735,24.6,16.165,37.04l-4.676,2.139L190.379,239.07l-.5.091c0,2.242-.04,4.486.006,6.728.217,10.654.435,21.308.717,31.959.039,1.482-.369,2.1-1.907,1.926a29.9,29.9,0,0,0-3.2-.021c.3-13.55.6-26.954.895-40.359l-.623-.155c-4.907,12.545-9.815,25.091-14.781,37.781-1.252-.549-2.357-1.1-3.512-1.52-1.069-.387-1.13-.944-.7-1.9,2.082-4.649,4.111-9.321,6.157-13.985q4.478-10.211,8.95-20.424c.18-.411.307-.846.46-1.27l-.38-.292-27.974,28.915-3.839-3.487,29.317-28.169-.308-.423-37.248,16.383c-.658-1.679-1.254-3.2-1.894-4.829l37.694-14.806-.036-.362a8.1,8.1,0,0,0-1.063-.123q-12.474.193-24.948.408c-4.312.078-8.625.17-12.935.319-1.2.042-1.708-.309-1.595-1.575.1-1.131.021-2.279.021-3.726l40.5.883.139-.489L140.012,211.7c.579-1.454,1.042-2.821,1.7-4.088.129-.25,1.093-.307,1.53-.121,5.061,2.169,10.1,4.4,15.138,6.618q9.558,4.205,19.114,8.416c.549.241,1.113.447,1.67.669l.277-.385L150.266,194.73c1.232-1.179,2.384-2.284,3.7-3.544l28.024,28.939.431-.3c-.379-.884-.75-1.771-1.136-2.651q-7.257-16.568-14.543-33.124c-.5-1.125-.2-1.5.833-1.934,3.4-1.432,3.387-1.475,4.733,1.964q6.416,16.4,12.83,32.8c.214.546.474,1.073.712,1.607l.5-.083c0-1.36.025-2.721,0-4.08q-.3-13.642-.615-27.284c-.059-2.546-.108-5.092-.221-7.636-.044-.993.256-1.41,1.3-1.377,4.2.133,3.793-.752,3.7,3.8-.164,7.849-.263,15.7-.408,23.549-.071,3.793-.187,7.586-.278,11.379-.014.551,0,1.1,0,1.654l.434.124c.271-.554.584-1.089.808-1.661q6.741-17.2,13.463-34.413c.7-1.792.7-1.792,2.535-.984.893.394,1.787.784,2.858,1.252l-16.2,37.157.432.317L222.3,191.04l3.441,3.892-28.981,27.894.271.455,37.155-16.365,2.02,4.777L198.392,226.53l.092.512,40.479-.885Z" transform="translate(712.968 3651.078)" fill="#ffff40"/>
    </g>
    <g id="sessie-2" transform="translate(-34.164 -1034.35)">
      <path id="vak_5" data-name="vak 5" d="M99.636,0,92.6,115.461,0,388.581l621.261,67.987L550.344,110.186Z" transform="matrix(0.996, -0.087, 0.087, 0.996, 7.703, 3315.372)" fill="#ddd"/>
      <path id="Path_591" data-name="Path 591" d="M35.282,0,26.277,20.668h-.295L16.829.148,7.824,5.315,21.7,23.325v.295L0,20.815V30.854l21.849-2.8v.3L7.824,46.355l8.415,5.314,9.6-20.815h.295l8.858,20.668,9.3-5.315L30.116,28.492v-.3l22.291,2.657V20.815L30.116,23.768v-.3L44.14,5.02Z" transform="translate(368.704 3439.827) rotate(17)" fill="#ffff40"/>
      <path id="Path_27" data-name="Path 27" d="M60.4,0,44.982,35.38h-.5L28.809.253,13.393,9.1,37.149,39.929v.5L0,35.633V52.817l37.4-4.8v.506L13.393,79.353,27.8,88.45,44.225,52.817h.5L59.893,88.2l15.921-9.1L51.553,48.774v-.506l38.159,4.549V35.633L51.553,40.687v-.506L75.561,8.593Z" transform="translate(281.11 3346.536) rotate(17)" fill="#ffff40"/>
    </g>
    <g id="sessie-1" transform="translate(-23.468 -1446)">
      <path id="vak_4" data-name="vak 4" d="M442.846,596.094l419.472-94.529L1082.1,877.317,499.563,924.581Z" transform="translate(133.141 2846.294)" fill="#ddd"/>
      <path id="Path_592" data-name="Path 592" d="M31.916,204.006,9,219.334l.207.353,24.657-12.145-12.53,25.383.3.164,15.853-23.733c.659,10.028,1.28,19.491,1.9,28.955l.3-.029c.6-9.4,1.2-18.809,1.829-28.673l16.139,24.14.217-.129L45.049,207.6l24.619,12.1q.1-.19.2-.378l-22.9-15.3,29.187-1.885.014-.194-29.2-1.946,23.3-15.567-.169-.331L44.9,196.5c4.492-9.107,8.729-17.694,12.966-26.281l-.2-.109L41.486,194.339l-1.811-28.392-.278-.018c-.62,9.395-1.24,18.789-1.891,28.636l-15.464-23.14-.339.19L34,196.547,8.849,184.141l-.16.317,22.744,15.226-.175.352L2.793,201.945c0,.059.006.118.009.177l29.114,1.883" transform="translate(781.053 3299.466)" fill="#ffff40"/>
      <path id="Path_593" data-name="Path 593" d="M60.244,241.041,15.032,271.279q.205.348.408.7l48.642-23.959L39.364,298.089l.589.323,31.273-46.818c1.3,19.782,2.525,38.451,3.75,57.119l.6-.058c1.183-18.552,2.366-37.1,3.608-56.563,10.932,16.354,21.384,31.988,31.837,47.621l.429-.255L86.152,248.125l48.566,23.861q.192-.374.385-.746L89.93,241.051l57.577-3.718.027-.383-57.593-3.84L135.9,202.4l-.334-.653L85.848,226.228c8.862-17.965,17.22-34.9,25.577-51.844l-.4-.215-31.9,47.8c-1.241-19.444-2.407-37.726-3.573-56.008L75,165.93c-1.224,18.533-2.447,37.065-3.729,56.49-10.561-15.805-20.533-30.727-30.505-45.648l-.67.375,24.261,49.181L14.739,201.855l-.315.625,44.867,30.037-.344.7L2.793,236.976c.006.117.013.233.018.35l57.433,3.715" transform="translate(854.426 3223.027)" fill="#ffff40"/>
    </g>
  </g>
</svg>
