<svg xmlns="http://www.w3.org/2000/svg" xmlns:xlink="http://www.w3.org/1999/xlink" width="772" height="772" viewBox="0 0 772 772">
  <defs>
    <clipPath id="clip-path">
      <circle id="Ellipse_27" data-name="Ellipse 27" cx="386" cy="386" r="386" transform="translate(1562 973)" fill="rgba(255,255,255,0)"/>
    </clipPath>
  </defs>
  <g id="Mask_Group_2" data-name="Mask Group 2" transform="translate(-1562 -973)" clip-path="url(#clip-path)">
    <g id="Sterretje" transform="translate(1095.302 506.302)">
      <g id="Group_19" data-name="Group 19" transform="translate(0 0)">
        <rect id="Rectangle_77" data-name="Rectangle 77" width="23" height="1705" transform="translate(841.698 -0.302)" fill="#ffff40"/>
        <rect id="Rectangle_78" data-name="Rectangle 78" width="22.733" height="1705.001" transform="matrix(0.966, -0.259, 0.259, 0.966, 621.019, 32.143)" fill="#ffff40"/>
        <rect id="Rectangle_79" data-name="Rectangle 79" width="22.733" height="1705" transform="translate(416.549 120.052) rotate(-30.001)" fill="#ffff40"/>
        <rect id="Rectangle_80" data-name="Rectangle 80" width="22.733" height="1705" transform="matrix(0.707, -0.707, 0.707, 0.707, 241.806, 257.878)" fill="#ffff40"/>
        <rect id="Rectangle_81" data-name="Rectangle 81" width="22.733" height="1705" transform="translate(108.686 436.235) rotate(-59.999)" fill="#ffff40"/>
        <rect id="Rectangle_82" data-name="Rectangle 82" width="22.733" height="1705" transform="translate(26.26 642.976) rotate(-74.999)" fill="#ffff40"/>
        <rect id="Rectangle_83" data-name="Rectangle 83" width="1705" height="23" transform="translate(-0.302 841.698)" fill="#ffff40"/>
        <rect id="Rectangle_84" data-name="Rectangle 84" width="1705" height="22.733" transform="translate(108.68 1269.056) rotate(-30)" fill="#ffff40"/>
        <rect id="Rectangle_85" data-name="Rectangle 85" width="1705.001" height="22.733" transform="matrix(0.966, -0.259, 0.259, 0.966, 26.258, 1062.32)" fill="#ffff40"/>
        <rect id="Rectangle_86" data-name="Rectangle 86" width="1705" height="22.733" transform="matrix(0.707, -0.707, 0.707, 0.707, 241.802, 1447.42)" fill="#ffff40"/>
        <rect id="Rectangle_87" data-name="Rectangle 87" width="1705" height="22.733" transform="matrix(0.5, -0.866, 0.866, 0.5, 416.547, 1585.248)" fill="#ffff40"/>
        <rect id="Rectangle_88" data-name="Rectangle 88" width="1705" height="22.733" transform="translate(621.017 1673.158) rotate(-74.999)" fill="#ffff40"/>
      </g>
    </g>
  </g>
</svg>
